<?xml version="1.0" standalone="no"?>
<svg width="267pt" height="267pt" version="1.1" baseProfile="full" xmlns="http://www.w3.org/2000/svg" viewBox="0 0 267 267" preserveAspectRatio="xMidYMid meet">
<title>Mickael DEVOLDERE Logo</title>
<g transform="translate(0,267) scale(0.1,-0.1)" fill="#00000033">
<path d="M 1320 1210 c 0 -19 3 -21 12 -12 9 9 9 15 0 24 -9 9 -12 7 -12 -12z"/>
<path d="M 1875 2643 c -171 -11 -300 -34 -380 -68 -45 -19 -198 -164 -223 -210 -23 -43 -51 -126 -52 -152 0 -14 -25 -43 -70 -84 -39 -34 -79 -77 -90 -94 -24
-38 -26 -91 -6 -137 40 -92 67 -146 86 -173 22 -34 26 -76 8 -108 -6 -12 -15 -40 -19 -62 -16 -87 -36 -133 -75 -178 -23 -26 -55 -52 -70 -57 -20 -7 -40
-29 -64 -71 -32 -55 -76 -109 -111 -134 -35 -25 -191 -91 -289 -121 -153 -48 -211 -78 -280 -144 -72 -69 -123 -160 -134 -235 -33 -227 -54 -437 -55 -532
l-1 -83 900 0 c495 0 900 2 900 5 0 3 -4 13 -9 23 -4 9 -15 33 -23 52 -27 65 -46 105 -113 243 -37 76 -64 145 -61 152 8 21 69 -16 84 -50 8 -16 23 -28 42
-32 24 -4 35 -15 50 -49 11 -23 20 -56 20 -73 0 -16 6 -42 14 -58 14 -27 28 -78 45 -154 13 -59 13 -59 136 -59 l114 0 -6 58 c-3 31 -10 65 -15 75 -5 11
-14 65 -18 120 -10 110 -21 173 -45 242 -31 93 -57 125 -167 210 -75 58 -100 84 -140 149 -66 107 -63 114 47 136 56 12 64 17 138 95 72 77 149 173 190 237
9 15 17 47 17 70 1 45 30 142 49 161 6 6 11 17 11 24 0 7 14 28 30 46 20 24 30 45 30 68 0 28 7 39 42 64 23 17 62 40 87 52 63 31 131 90 131 114 0 25 -32
88 -64 126 -13 16 -68 51 -121 78 -92 47 -135 87 -135 125 0 13 -7 30 -77 180 -68 145 -76 160 -103 178 -32 22 -104 38 -155 35z m64 -512 c20 -11 52 -33 69
-49 29 -28 31 -33 26 -75 -7 -50 11 -110 47 -155 23 -29 25 -52 4 -52 -9 0 -15 9 -15 25 0 16 -7 28 -17 31 -28 9 -53 20 -134 58 -56 26 -90 36 -127 36
-52 0 -107 23 -117 49 -7 18 33 61 57 61 10 0 21 7 24 15 3 8 16 17 27 21 12 4 35 17 50 30 35 29 56 30 106 5z m-592 -198 c25 -23 45 -70 33 -78 -5 -3 -11
-1 -15 5 -24 39 -54 -39 -33 -85 8 -18 8 -28 -2 -40 -7 -8 -16 -12 -21 -9 -12 7 -11 -3 2 -24 7 -11 8 -29 2 -52 -7 -27 -15 -36 -35 -38 -18 -2 -30 3 -36 15
-12 22 1 192 17 221 6 11 11 30 11 42 0 55 39 76 77 43z m-97 -40 c0 -10 -9 -29 -20 -43 -16 -22 -20 -23 -25 -8 -4 10 1 28 12 42 21 30 33 33 33 9z m426
-38 c51 13 166 17 177 6 13 -13 -31 -31 -79 -31 -36 0 -74 -28 -74 -55 0 -17 30 -35 59 -35 14 0 21 -6 21 -20 0 -16 -7 -20 -30 -20 -31 0 -40 -13 -16 -27
7 -4 21 -23 30 -40 20 -41 49 -43 96 -8 19 14 41 25 50 25 8 0 26 7 38 16 17 11 20 19 13 33 -6 10 -6 23 0 32 5 7 9 26 9 42 0 27 13 36 25 17 3 -5 19 -10
36 -10 33 0 34 -7 14 -65 -8 -22 -15 -62 -15 -90 0 -68 -8 -78 -48 -63 -26 10 -37 9 -67 -5 -27 -13 -41 -14 -62 -6 -23 9 -31 6 -62 -25 -20 -18 -46 -37 -58
-41 -13 -3 -23 -11 -23 -16 0 -15 31 -10 76 12 33 16 47 18 63 10 27 -15 31 -14 31 9 0 24 6 26 82 34 55 6 57 5 76 -26 15 -23 18 -37 11 -50 -13 -24 -22
-23 -70 8 -39 24 -84 29 -84 9 0 -5 12 -11 28 -13 35 -4 34 -21 -4 -55 -37 -32 -81 -35 -152 -10 -56 20 -72 14 -100 -40 -25 -49 -18 -63 15 -32 15 14 31
25 37 25 5 0 22 -15 39 -34 21 -24 31 -48 36 -86 6 -46 4 -56 -15 -76 -26 -27 -51 -31 -69 -9 -7 8 -18 15 -25 15 -20 0 -65 48 -59 63 6 17 -32 48 -50 41 -6
-2 -28 31 -48 74 -42 86 -50 162 -23 198 8 10 15 28 15 38 0 11 4 33 9 50 37 121 45 154 45 178 1 14 12 38 25 52 22 23 25 24 36 9 9 -12 19 -14 41 -8z
m404 -469 c0 -8 -4 -17 -9 -21 -12 -7 -24 12 -16 25 9 15 25 12 25 -4z m-1002 -118 c9 -9 15 -9 23 -1 15 15 32 8 108 -46 l64 -45 -5 32 c-3 24 1 37 17 52
l22 20 27 -23 c36 -31 55 -98 41 -149 -6 -23 2 -35 62 -100 38 -40 89 -98 113 -127 25 -30 55 -65 68 -78 14 -15 22 -34 22 -58 0 -20 -10 -54 -22 -76 -23
-39 -23 -40 -4 -54 20 -15 20 -15 0 -15 -11 0 -31 11 -43 24 -19 20 -20 24 -6 30 9 3 13 11 10 16 -5 8 -11 7 -22 -1 -12 -11 -20 -7 -44 19 -17 18 -34 32
-39 32 -4 0 -29 28 -54 63 -25 34 -49 67 -54 72 -5 6 -26 35 -47 65 -21 30 -41 57 -45 60 -16 13 -190 249 -190 259 0 7 -7 14 -15 17 -16 6 -21 24 -7 24 4 0 13 -5 20 -12z"/>
</g>
</svg>